<?xml version="1.0" encoding="UTF-8" standalone="no"?>
<svg
   xmlns:dc="http://purl.org/dc/elements/1.1/"
   xmlns:cc="http://creativecommons.org/ns#"
   xmlns:rdf="http://www.w3.org/1999/02/22-rdf-syntax-ns#"
   xmlns:svg="http://www.w3.org/2000/svg"
   xmlns="http://www.w3.org/2000/svg"
   xmlns:inkscape="http://www.inkscape.org/namespaces/inkscape"
   width="48"
   height="48"
   viewBox="0 0 12.7 12.7"
   version="1.1"
   id="svg8"
   inkscape:version="1.0.2 (e86c870879, 2021-01-15)"
  <defs
     id="defs2" />
  <sodipodi:namedview
     id="base"
     pagecolor="#ffffff"
     bordercolor="#666666"
     borderopacity="1.0"
     inkscape:pageopacity="0.0"
     inkscape:pageshadow="2"
     inkscape:zoom="11.2"
     inkscape:cx="28.107171"
     inkscape:cy="30.888776"
     inkscape:document-units="mm"
     inkscape:current-layer="layer1"
     inkscape:document-rotation="0"
     showgrid="false"
     units="px"
     inkscape:window-width="1492"
     inkscape:window-height="1002"
     inkscape:window-x="404"
     inkscape:window-y="27"
     inkscape:window-maximized="0" />
  <metadata
     id="metadata5">
    <rdf:RDF>
      <cc:Work
         rdf:about="">
        <dc:format>image/svg+xml</dc:format>
        <dc:type
           rdf:resource="http://purl.org/dc/dcmitype/StillImage" />
        <dc:title></dc:title>
      </cc:Work>
    </rdf:RDF>
  </metadata>
  <g
     inkscape:label="Layer 1"
     inkscape:groupmode="layer"
     id="layer1">
    <rect
       style="fill:#808080;stroke:#585a72;stroke-width:0.0572621;stroke-linecap:round;stroke-linejoin:round;stroke-miterlimit:4;stroke-dasharray:none;stroke-opacity:1"
       id="rect830"
       width="12.028465"
       height="0.34798691"
       x="0.39874068"
       y="6.0258837"
       ry="0.066704303" />
    <circle
       style="fill:#32cd32;stroke:#585a72;stroke-width:0.143;stroke-linecap:round;stroke-linejoin:round;stroke-miterlimit:4;stroke-dasharray:none;stroke-opacity:1"
       id="path834"
       sodipodi:type="arc"
       sodipodi:cx="2.3226233"
       sodipodi:cy="3.9791276"
       sodipodi:rx="1.154695"
       sodipodi:ry="1.154695"
       sodipodi:start="0.31587143"
       sodipodi:end="0.31122188"
       sodipodi:open="true"
       sodipodi:arc-type="arc"
       d="M 3.4201909,4.3378278 A 1.154695,1.154695 0 0 1 1.9651992,5.0771115 1.154695,1.154695 0 0 1 1.2242246,3.6229801 1.154695,1.154695 0 0 1 2.6774938,2.8803158 1.154695,1.154695 0 0 1 3.4218469,4.3327207" />
    <circle
       style="fill:#ffd700;stroke:#585a72;stroke-width:0.143;stroke-linecap:round;stroke-linejoin:round;stroke-miterlimit:4;stroke-dasharray:none;stroke-opacity:1"
       id="path834-3"
       sodipodi:type="arc"
       sodipodi:cx="6.3679738"
       sodipodi:cy="4.1051989"
       sodipodi:rx="1.154695"
       sodipodi:ry="1.154695"
       sodipodi:start="0.31587143"
       sodipodi:end="0.31122188"
       sodipodi:open="true"
       sodipodi:arc-type="arc"
       d="M 7.4655415,4.463899 A 1.154695,1.154695 0 0 1 6.0105497,5.2031828 1.154695,1.154695 0 0 1 5.2695752,3.7490513 1.154695,1.154695 0 0 1 6.7228444,3.006387 1.154695,1.154695 0 0 1 7.4671974,4.4587919" />
    <circle
       style="fill:#b22222;stroke:#585a72;stroke-width:0.143;stroke-linecap:round;stroke-linejoin:round;stroke-miterlimit:4;stroke-dasharray:none;stroke-opacity:1"
       id="path834-3-6"
       sodipodi:type="arc"
       sodipodi:cx="10.468109"
       sodipodi:cy="4.1051989"
       sodipodi:rx="1.154695"
       sodipodi:ry="1.154695"
       sodipodi:start="0.31587143"
       sodipodi:end="0.31122188"
       sodipodi:open="true"
       sodipodi:arc-type="arc"
       d="M 11.565677,4.463899 A 1.154695,1.154695 0 0 1 10.110685,5.2031828 1.154695,1.154695 0 0 1 9.3697105,3.7490513 1.154695,1.154695 0 0 1 10.82298,3.006387 1.154695,1.154695 0 0 1 11.567333,4.4587919" />
    <circle
       style="fill:#b22222;stroke:#585a72;stroke-width:0.144708;stroke-linecap:round;stroke-linejoin:round;stroke-miterlimit:4;stroke-dasharray:none;stroke-opacity:1"
       id="path834-7"
       sodipodi:type="arc"
       sodipodi:cx="2.3226233"
       sodipodi:cy="8.1873941"
       sodipodi:rx="1.1684855"
       sodipodi:ry="1.1684855"
       sodipodi:start="0.31587143"
       sodipodi:end="0.31122188"
       sodipodi:open="true"
       sodipodi:arc-type="arc"
       d="M 3.4332992,8.5503782 A 1.1684855,1.1684855 0 0 1 1.9609305,9.2984912 1.1684855,1.1684855 0 0 1 1.2111065,7.8269931 1.1684855,1.1684855 0 0 1 2.681732,7.0754592 1.1684855,1.1684855 0 0 1 3.4349749,8.5452102" />
    <circle
       style="fill:#32cd32;stroke:#585a72;stroke-width:0.144708;stroke-linecap:round;stroke-linejoin:round;stroke-miterlimit:4;stroke-dasharray:none;stroke-opacity:1"
       id="path834-3-5"
       sodipodi:type="arc"
       sodipodi:cx="6.3679738"
       sodipodi:cy="8.314971"
       sodipodi:rx="1.1684855"
       sodipodi:ry="1.1684855"
       sodipodi:start="0.31587143"
       sodipodi:end="0.31122188"
       sodipodi:open="true"
       sodipodi:arc-type="arc"
       d="M 7.4786497,8.677955 A 1.1684855,1.1684855 0 0 1 6.006281,9.4260681 1.1684855,1.1684855 0 0 1 5.256457,7.9545699 1.1684855,1.1684855 0 0 1 6.7270826,7.203036 1.1684855,1.1684855 0 0 1 7.4803254,8.672787" />
    <circle
       style="fill:#b22222;stroke:#585a72;stroke-width:0.144708;stroke-linecap:round;stroke-linejoin:round;stroke-miterlimit:4;stroke-dasharray:none;stroke-opacity:1"
       id="path834-3-6-3"
       sodipodi:type="arc"
       sodipodi:cx="10.468109"
       sodipodi:cy="8.314971"
       sodipodi:rx="1.1684855"
       sodipodi:ry="1.1684855"
       sodipodi:start="0.31587143"
       sodipodi:end="0.31122188"
       sodipodi:open="true"
       sodipodi:arc-type="arc"
       d="M 11.578785,8.677955 A 1.1684855,1.1684855 0 0 1 10.106416,9.4260681 1.1684855,1.1684855 0 0 1 9.3565924,7.9545699 1.1684855,1.1684855 0 0 1 10.827218,7.203036 1.1684855,1.1684855 0 0 1 11.580461,8.672787" />
  </g>
</svg>
