<?xml version="1.0" encoding="UTF-8" standalone="no"?>
<!-- Uploaded to: SVG Repo, www.svgrepo.com, Generator: SVG Repo Mixer Tools -->

<svg
   fill="#d7d78c"
   width="800px"
   height="800px"
   viewBox="0 0 32 32"
   version="1.1"
   id="svg1126"
   sodipodi:docname="dashboard.svg"
   inkscape:version="1.2.2 (b0a8486541, 2022-12-01)"
   xmlns:inkscape="http://www.inkscape.org/namespaces/inkscape"
   xmlns:sodipodi="http://sodipodi.sourceforge.net/DTD/sodipodi-0.dtd"
   xmlns="http://www.w3.org/2000/svg"
   xmlns:svg="http://www.w3.org/2000/svg">
  <defs
     id="defs1130" />
  <sodipodi:namedview
     id="namedview1128"
     pagecolor="#ffffff"
     bordercolor="#d7d78c"
     borderopacity="0.25"
     inkscape:showpageshadow="2"
     inkscape:pageopacity="0.0"
     inkscape:pagecheckerboard="0"
     inkscape:deskcolor="#d1d1d1"
     showgrid="false"
     inkscape:zoom="1.0975"
     inkscape:cx="408.20046"
     inkscape:cy="411.8451"
     inkscape:window-width="1848"
     inkscape:window-height="1122"
     inkscape:window-x="24"
     inkscape:window-y="32"
     inkscape:window-maximized="1"
     inkscape:current-layer="svg1126" />
  <title
     id="title1122">dashboard</title>
  <path
     d="M 5.7989211,29.542371 H 25.830577 c 0.355966,0 0.713199,-0.170975 0.910818,-0.470524 1.069165,-1.282996 1.860905,-2.906575 2.41449,-4.573924 0.554851,-1.70975 0.871547,-3.505671 0.871547,-5.215421 0,-4.189573 -1.58348,-7.993425 -4.156318,-10.8138288 C 23.257738,5.646901 19.734812,3.9809203 15.815382,3.9809203 c -3.91943,0 -7.4423559,1.6673485 -10.0557312,4.4877529 -2.5728384,2.8217708 -4.1170482,6.5832228 -4.1170482,10.8138288 0,1.70975 0.316696,3.505671 0.8715474,5.215421 0.5548515,1.667349 1.3060544,3.290928 2.4144905,4.573924 0.1976183,0.299549 0.475044,0.470524 0.8715474,0.470524 z M 14.033017,8.4700412 c 0,-1.1120221 0.79174,-1.9231275 1.781098,-1.9231275 0.989359,0 1.781099,0.8124732 1.781099,1.9231275 0,1.0682516 -0.79174,1.8807248 -1.781099,1.8807248 -0.989358,0 -1.781098,-0.8124732 -1.781098,-1.8807248 z M 6.9478941,11.632394 c 0,-1.068251 0.79174,-1.8807247 1.781098,-1.8807247 0.989358,0 1.7810979,0.8124737 1.7810979,1.8807247 0,1.068253 -0.7917399,1.923128 -1.7810979,1.923128 -0.989358,0 -1.781098,-0.854875 -1.781098,-1.923128 z m 14.2107829,0 c 0,-1.068251 0.79174,-1.8807247 1.781099,-1.8807247 1.029895,0 1.781098,0.8124737 1.781098,1.8807247 0,1.068253 -0.75247,1.880727 -1.781098,1.880727 -0.989359,0 -1.781099,-0.812474 -1.781099,-1.880727 z m -5.462373,9.617004 2.058524,-7.951023 c 0.119078,-0.384351 0.435774,-0.6839 0.871548,-0.6839 0.435774,0 0.871547,0.428122 0.871547,0.897278 0,0.08617 -0.07981,0.299547 -0.158348,0.6839 -0.119077,0.428121 -0.197618,0.941046 -0.355966,1.453971 -0.119078,0.555328 -0.277426,1.196825 -0.435774,1.795922 -0.355966,1.325398 -0.713199,2.564625 -0.910817,3.419501 -0.119078,0.428121 -0.197619,0.812473 -0.238156,0.941046 0.79174,0.599097 1.385862,1.538775 1.385862,2.607027 0,1.795922 -1.306055,3.206124 -2.969342,3.206124 -1.663287,0 -2.930072,-1.410202 -2.930072,-3.206124 0,-0.812473 0.277426,-1.624947 0.791741,-2.180273 0.514314,-0.555327 1.266784,-0.941046 2.019253,-0.983449 z M 4.0178227,19.283869 c 0,-1.068252 0.7524698,-1.880725 1.7418281,-1.880725 0.9893583,0 1.8216353,0.812473 1.8216353,1.880725 0,1.068252 -0.83101,1.923128 -1.8216353,1.923128 -0.9906251,0 -1.7418281,-0.854876 -1.7418281,-1.923128 z m 20.0709263,0 c 0,-1.068252 0.79174,-1.880725 1.781098,-1.880725 0.989359,0 1.741828,0.812473 1.741828,1.880725 0,1.068252 -0.752469,1.923128 -1.741828,1.923128 -0.989358,0 -1.781098,-0.854876 -1.781098,-1.923128 z"
     id="path1124"
     style="stroke-width:1.31632" />
</svg>
