<?xml version="1.0" encoding="UTF-8" standalone="no"?>
<!-- Uploaded to: SVG Repo, www.svgrepo.com, Generator: SVG Repo Mixer Tools -->

<svg
   fill="#d7d78c"
   height="800px"
   width="800px"
   version="1.1"
   id="Capa_1"
   viewBox="0 0 294.989 294.989"
   xml:space="preserve"
   sodipodi:docname="db.svg"
   inkscape:version="1.2.2 (b0a8486541, 2022-12-01)"
   xmlns:inkscape="http://www.inkscape.org/namespaces/inkscape"
   xmlns:sodipodi="http://sodipodi.sourceforge.net/DTD/sodipodi-0.dtd"
   xmlns="http://www.w3.org/2000/svg"
   xmlns:svg="http://www.w3.org/2000/svg"><defs
   id="defs2553" /><sodipodi:namedview
   id="namedview2551"
   pagecolor="#ffffff"
   bordercolor="#d7d78c"
   borderopacity="0.25"
   inkscape:showpageshadow="2"
   inkscape:pageopacity="0.0"
   inkscape:pagecheckerboard="0"
   inkscape:deskcolor="#d1d1d1"
   showgrid="false"
   inkscape:zoom="1.13"
   inkscape:cx="400"
   inkscape:cy="400"
   inkscape:window-width="1848"
   inkscape:window-height="1122"
   inkscape:window-x="24"
   inkscape:window-y="32"
   inkscape:window-maximized="1"
   inkscape:current-layer="Capa_1" />
<g
   id="g2548"
   transform="matrix(0.90283002,0,0,0.87863376,14.332038,17.900914)">
	<path
   d="m 293.731,86.59 c 0,-6.072 -2.552,-11.448 -6.971,-16.117 3.588,-3.662 6.032,-7.768 6.974,-12.327 L 293.731,38.097 C 293.731,13.351 251.615,0 211.988,0 c -11.704,0 -23.624,1.166 -34.612,3.444 10.309,4.526 17.953,9.649 23.589,14.916 3.527,-0.226 7.202,-0.35 11.023,-0.35 39.533,0 63.733,13.006 63.733,20.088 0,6.826 -22.471,19.143 -59.469,20.034 l 0.003,18.931 -0.309,1.502 c -0.882,4.27 -2.441,8.368 -4.661,12.266 0.219,0.408 0.412,0.824 0.616,1.237 0.029,0 0.059,0.001 0.087,0.001 21.336,0 43.635,-3.859 59.615,-11.368 2.686,2.131 4.118,4.182 4.118,5.89 0,6.834 -22.547,19.184 -59.658,20.038 0.112,1.226 0.188,2.458 0.188,3.699 l 0.004,26.054 -0.309,1.501 c -0.184,0.889 -0.403,1.768 -0.645,2.641 20.31,-0.377 41.146,-4.212 56.302,-11.334 2.686,2.131 4.118,4.182 4.118,5.89 0,6.986 -23.565,19.733 -62.16,20.075 1.772,4.65 2.69,9.515 2.69,14.491 l 0.003,19.352 c 20.007,-0.479 40.431,-4.307 55.349,-11.314 2.686,2.13 4.118,4.182 4.118,5.89 0,6.957 -23.365,19.622 -61.669,20.066 -0.765,1.989 -1.686,3.935 -2.768,5.833 3.273,6.114 4.967,12.703 4.967,19.497 l 0.001,8.515 c 35.854,-0.855 73.062,-12.444 77.481,-33.864 l -0.003,-20.047 c 0,-6.073 -2.552,-11.448 -6.971,-16.117 3.588,-3.662 6.032,-7.767 6.974,-12.326 l -0.003,-20.05 c 0,-6.069 -2.552,-11.448 -6.971,-16.117 3.588,-3.659 6.032,-7.767 6.974,-12.327 z"
   id="path2542" />
	<g
   id="g2546">
		<path
   d="m 201.251,110.327 c 0,-7.429 -3.121,-14.004 -8.526,-19.716 4.388,-4.48 7.379,-9.502 8.53,-15.079 L 201.251,51.005 C 201.251,20.732 149.73,4.399 101.253,4.399 52.776,4.399 1.255,20.731 1.255,51.01 l 0.023,24.008 0.055,0.514 c 1.149,5.558 4.12,10.566 8.475,15.031 -5.426,5.723 -8.553,12.322 -8.553,19.766 l 0.023,24.012 0.055,0.51 c 1.149,5.558 4.12,10.567 8.475,15.031 -5.426,5.727 -8.553,12.322 -8.553,19.766 l 0.023,24.012 0.055,0.514 c 1.149,5.557 4.12,10.566 8.475,15.031 -5.426,5.723 -8.553,12.318 -8.553,19.766 l 0.023,24.012 0.055,0.51 c 5.624,27.245 54.525,41.497 99.92,41.497 45.395,0 94.379,-14.252 100.002,-41.497 l -0.004,-24.524 c 0,-7.429 -3.121,-14.004 -8.526,-19.716 4.388,-4.48 7.379,-9.501 8.53,-15.079 l -0.004,-24.528 c 0,-7.425 -3.121,-14.004 -8.526,-19.716 4.388,-4.476 7.379,-9.501 8.53,-15.079 z m -22.032,59.319 c 0,8.663 -29.604,24.578 -77.966,24.578 -48.362,0 -77.966,-15.915 -77.966,-24.578 0,-2.091 1.756,-4.609 5.058,-7.219 19.529,9.193 46.792,13.924 72.908,13.924 26.101,0 53.379,-4.724 72.929,-13.911 3.285,2.607 5.037,5.117 5.037,7.206 z m 0,-59.319 c 0,8.663 -29.604,24.574 -77.966,24.574 -48.362,0 -77.966,-15.911 -77.966,-24.574 0,-2.095 1.756,-4.609 5.058,-7.223 19.529,9.197 46.792,13.924 72.908,13.924 26.101,0 53.379,-4.721 72.929,-13.907 3.285,2.607 5.037,5.117 5.037,7.206 z M 101.253,26.431 c 48.361,0 77.966,15.911 77.966,24.574 0,8.667 -29.604,24.577 -77.966,24.577 -48.362,0 -77.966,-15.91 -77.966,-24.577 0.001,-8.664 29.604,-24.574 77.966,-24.574 z m 0,227.111 c -48.362,0 -77.966,-15.911 -77.966,-24.574 0,-2.095 1.756,-4.609 5.058,-7.223 19.529,9.197 46.792,13.924 72.908,13.924 26.101,0 53.379,-4.724 72.929,-13.907 3.285,2.606 5.037,5.116 5.037,7.206 0,8.664 -29.604,24.574 -77.966,24.574 z"
   id="path2544" />
	</g>
</g>
</svg>
