<?xml version="1.0" encoding="UTF-8" standalone="no"?>
<svg
   xmlns:dc="http://purl.org/dc/elements/1.1/"
   xmlns:cc="http://creativecommons.org/ns#"
   xmlns:rdf="http://www.w3.org/1999/02/22-rdf-syntax-ns#"
   xmlns:svg="http://www.w3.org/2000/svg"
   xmlns="http://www.w3.org/2000/svg"
   xmlns:sodipodi="http://sodipodi.sourceforge.net/DTD/sodipodi-0.dtd"
   xmlns:inkscape="http://www.inkscape.org/namespaces/inkscape"
   height="800px"
   width="800px"
   version="1.1"
   id="_x32_"
   viewBox="0 0 512 512"
   xml:space="preserve"
   sodipodi:docname="db-material-2-svgrepo-com.svg"
   inkscape:version="1.0.2 (e86c870879, 2021-01-15)"><metadata
   id="metadata17"><rdf:RDF><cc:Work
       rdf:about=""><dc:format>image/svg+xml</dc:format><dc:type
         rdf:resource="http://purl.org/dc/dcmitype/StillImage" /></cc:Work></rdf:RDF></metadata><defs
   id="defs15" /><sodipodi:namedview
   pagecolor="#ffffff"
   bordercolor="#666666"
   borderopacity="1"
   objecttolerance="10"
   gridtolerance="10"
   guidetolerance="10"
   inkscape:pageopacity="0"
   inkscape:pageshadow="2"
   inkscape:window-width="1888"
   inkscape:window-height="889"
   id="namedview13"
   showgrid="false"
   inkscape:zoom="0.75395261"
   inkscape:cx="-26.274068"
   inkscape:cy="344.44345"
   inkscape:window-x="0"
   inkscape:window-y="52"
   inkscape:window-maximized="0"
   inkscape:current-layer="_x32_"
   inkscape:document-rotation="0" />
<style
   type="text/css"
   id="style2">
	.st0{fill:#e7d7cc;}
</style>
<g
   id="g10"
   transform="matrix(0.67684077,0,0,0.76242408,168.36563,71.581194)">
	<path
   class="st0"
   d="m 455.925,324.816 v -0.305 c -43.168,34.714 -115.123,56.648 -200,56.648 -74.15,0 -138.432,-16.743 -182.279,-44.12 -6.223,-3.94 -12.07,-8.112 -17.48,-12.524 v 0.178 c -0.076,-0.062 -0.162,-0.119 -0.24,-0.182 v 92.043 c 0,52.626 89.717,95.445 200,95.445 110.283,0 200,-42.819 200,-95.445 v -56.488 l 0.15,-35.363 c -0.05,0.039 -0.102,0.074 -0.151,0.113 z"
   id="path4" />
	<path
   class="st0"
   d="m 255.925,340.831 c 110.283,0 200,-42.82 200,-95.444 v -5.188 -38.329 -16.675 l 0.15,-10.437 c -0.049,0.039 -0.102,0.074 -0.15,0.113 v -0.301 c -43.168,34.714 -115.123,56.648 -200,56.648 -74.117,0 -138.375,-16.73 -182.221,-44.087 -6.244,-3.952 -12.111,-8.137 -17.539,-12.562 v 0.182 c -0.076,-0.062 -0.162,-0.119 -0.24,-0.182 v 27.3 38.329 5.188 c 0,52.626 89.717,95.445 200,95.445 z"
   id="path6" />
	<path
   class="st0"
   d="m 255.925,190.89 c 110.283,0 200,-42.819 200,-95.444 0,-1.507 -0.328,-2.974 -0.472,-4.463 -0.836,-8.539 -3.844,-16.81 -9.098,-24.622 C 420.507,27.918 344.952,0 255.925,0 166.898,0 91.343,27.918 65.497,66.36 c -5.256,7.812 -8.264,16.083 -9.098,24.622 -0.147,1.488 -0.475,2.956 -0.475,4.463 10e-4,52.625 89.718,95.445 200.001,95.445 z"
   id="path8" />
</g>
<text
   xml:space="preserve"
   style="font-style:normal;font-variant:normal;font-weight:bold;font-stretch:normal;font-size:174.858px;line-height:1.25;font-family:'Courier 10 Pitch';-inkscape-font-specification:'Courier 10 Pitch Bold';fill:#e7d7cc;fill-opacity:1;stroke:none;stroke-width:0.91072"
   x="32.584721"
   y="332.32632"
   id="text844"
   transform="scale(1.1130673,0.89841829)"><tspan
     sodipodi:role="line"
     id="tspan842"
     x="32.584721"
     y="332.32632"
     style="font-style:normal;font-variant:normal;font-weight:bold;font-stretch:normal;font-size:174.858px;font-family:'Courier 10 Pitch';-inkscape-font-specification:'Courier 10 Pitch Bold';stroke-width:0.91072">?</tspan></text><g
   id="g852"
   transform="translate(-8.7615338,-0.62136075)"><rect
     style="fill:#e7d7cc;stroke:none;stroke-width:2.52288;stroke-linecap:round;stroke-linejoin:round;stroke-miterlimit:4;stroke-dasharray:none"
     id="rect846"
     width="136.65575"
     height="12.936976"
     x="33.513485"
     y="170.16586"
     ry="0.31169921" /><path
     style="fill:#e7d7cc;fill-opacity:1;stroke:none;stroke-width:0.64px;stroke-linecap:butt;stroke-linejoin:miter;stroke-opacity:1"
     d="m 154.8697,154.33196 38.6119,21.7176 -38.41583,20.79275 z"
     id="path848"
     sodipodi:nodetypes="cccc" /></g><g
   id="g852-5"
   transform="matrix(-1,0,0,1,215.88544,148.00716)"><rect
     style="fill:#e7d7cc;stroke:none;stroke-width:2.52288;stroke-linecap:round;stroke-linejoin:round;stroke-miterlimit:4;stroke-dasharray:none"
     id="rect846-7"
     width="136.65575"
     height="12.936976"
     x="33.513485"
     y="170.16586"
     ry="0.31169921" /><path
     style="fill:#e7d7cc;fill-opacity:1;stroke:none;stroke-width:0.64px;stroke-linecap:butt;stroke-linejoin:miter;stroke-opacity:1"
     d="m 154.8697,154.33196 38.6119,21.7176 -38.41583,20.79275 z"
     id="path848-3"
     sodipodi:nodetypes="cccc" /></g></svg>
