<?xml version="1.0" encoding="UTF-8" standalone="no"?>
<!-- Uploaded to: SVG Repo, www.svgrepo.com, Generator: SVG Repo Mixer Tools -->

<svg
   fill="#000000"
   version="1.1"
   id="Capa_1"
   width="800px"
   height="800px"
   viewBox="0 0 45.574 45.574"
   xml:space="preserve"
   sodipodi:docname="server.svg"
   inkscape:version="1.4.4 (dcaf3e7d9e, 2026-05-05)"
   xmlns:inkscape="http://www.inkscape.org/namespaces/inkscape"
   xmlns:sodipodi="http://sodipodi.sourceforge.net/DTD/sodipodi-0.dtd"
   xmlns="http://www.w3.org/2000/svg"
   xmlns:svg="http://www.w3.org/2000/svg"><defs
   id="defs1118" /><sodipodi:namedview
   id="namedview1116"
   pagecolor="#ffffff"
   bordercolor="#000000"
   borderopacity="0.25"
   inkscape:showpageshadow="2"
   inkscape:pageopacity="0.0"
   inkscape:pagecheckerboard="0"
   inkscape:deskcolor="#d1d1d1"
   showgrid="false"
   inkscape:zoom="0.39951533"
   inkscape:cx="232.78206"
   inkscape:cy="453.04895"
   inkscape:window-width="1268"
   inkscape:window-height="767"
   inkscape:window-x="0"
   inkscape:window-y="0"
   inkscape:window-maximized="1"
   inkscape:current-layer="Capa_1" />
<g
   id="g1113"
   transform="matrix(0.90931371,0,0,0.90931371,3.3818345,2.2401826)">
	<g
   id="g1111">
		<path
   d="m 6.4695072,10.263 c -2.3050917,0 -4.2279989,1.332 -4.4423951,3.054 L 0.6009115,24.849 c -0.0239698,0.282 0.11052721,0.576 0.36886794,0.783 0.25834076,0.206 0.61921876,0.338 0.99474496,0.338 h 2.6912711 l 0.049271,18.614 c 0,0.566 0.6618316,0.99 1.4195423,0.99 h 2.2837853 c 0.7550473,0 1.321,-0.422 1.321,-0.988 V 29.117 c 0,-0.258 0.3049489,-0.428 0.6498469,-0.428 0.344898,0 0.625877,0.17 0.625877,0.428 v 15.47 c 0,0.565 0.639194,0.987 1.392909,0.987 h 2.285117 c 0.756379,0 1.392909,-0.43 1.392909,-0.996 L 15.95221,14.087 18.232,14.085 v -3.796 z"
   id="path1099"
   style="stroke-width:1.15397" />
		<circle
   cx="11.921611"
   cy="4.2606616"
   id="circle1101"
   r="5.0863814"
   style="stroke-width:1.19934" />
		<path
   d="m 30.203,10.247 -2.072,0.007 v 3.797 l 2.082,-0.008 c 0.604,-0.002 1.109,-0.49 1.109,-1.095 v -1.606 c 0,-0.292 -0.123,-0.57 -0.329,-0.776 -0.205,-0.206 -0.499,-0.32 -0.79,-0.319 z"
   id="path1103" />
		<path
   d="m 20.211,18.031 c 0,0.924 0.754,1.684 1.678,1.684 h 2.607 c 0.923,0 1.654,-0.76 1.654,-1.684 V 9.816 h -5.939 z"
   id="path1105" />
		<path
   d="m 23.058339,6.6483303 h 10.529 c 0.103,0 0.2,-0.042 0.27,-0.117 0.068,-0.078 0.102,-0.179 0.089,-0.281 -0.283,-2.518 -2.217,-4.532 -4.692,-4.942 0.063,-0.136 0.101,-0.284 0.101,-0.44199996 0,-0.57 -0.462,-1.033 -1.032,-1.033 -0.57,0 -1.032,0.463 -1.032,1.033 0,0.15899996 0.036,0.30999996 0.102,0.44299996 -2.476,0.411 -4.408,2.427 -4.692,4.943 -0.012,0.102 0.021,0.201 0.091,0.278 0.065,0.076 0.162,0.118 0.266,0.118 z"
   id="path1107" />
		<path
   d="m 34.305339,7.2863303 h -11.967 c -0.496,0 -0.898,0.398 -0.898,0.895 0,0.497 0.402,0.895 0.897,0.895 h 11.968 c 0.496,0 0.896,-0.398 0.896,-0.895 0,-0.497 -0.4,-0.895 -0.896,-0.895 z"
   id="path1109" />
	</g>
</g><g
   id="g1113-6"
   transform="matrix(0.49723714,0,0,0.41761583,22.495784,21.310601)">
	<g
   id="g1111-7">
		<path
   d="m 6.4695072,10.263 c -2.3050917,0 -4.2279989,1.332 -4.4423951,3.054 L 0.6009115,24.849 c -0.0239698,0.282 0.11052721,0.576 0.36886794,0.783 0.25834076,0.206 0.61921876,0.338 0.99474496,0.338 h 2.6912711 l 0.049271,18.614 c 0,0.566 0.6618316,0.99 1.4195423,0.99 h 2.2837853 c 0.7550473,0 1.321,-0.422 1.321,-0.988 V 29.117 c 0,-0.258 0.3049489,-0.428 0.6498469,-0.428 0.344898,0 0.625877,0.17 0.625877,0.428 v 15.47 c 0,0.565 0.639194,0.987 1.392909,0.987 h 2.285117 c 0.756379,0 1.392909,-0.43 1.392909,-0.996 L 15.95221,14.087 18.232,14.085 v -3.796 z"
   id="path1099-5"
   style="stroke-width:1.15397" />
		<circle
   cx="11.921611"
   cy="4.2606616"
   id="circle1101-3"
   r="5.0863814"
   style="stroke-width:1.19934" />
		<path
   d="m 30.203,10.247 -2.072,0.007 v 3.797 l 2.082,-0.008 c 0.604,-0.002 1.109,-0.49 1.109,-1.095 v -1.606 c 0,-0.292 -0.123,-0.57 -0.329,-0.776 -0.205,-0.206 -0.499,-0.32 -0.79,-0.319 z"
   id="path1103-5" />
		<path
   d="m 20.211,18.031 c 0,0.924 0.754,1.684 1.678,1.684 h 2.607 c 0.923,0 1.654,-0.76 1.654,-1.684 V 9.816 h -5.939 z"
   id="path1105-6" />
		<path
   d="m 23.058339,6.6483303 h 10.529 c 0.103,0 0.2,-0.042 0.27,-0.117 0.068,-0.078 0.102,-0.179 0.089,-0.281 -0.283,-2.518 -2.217,-4.532 -4.692,-4.942 0.063,-0.136 0.101,-0.284 0.101,-0.44199996 0,-0.57 -0.462,-1.033 -1.032,-1.033 -0.57,0 -1.032,0.463 -1.032,1.033 0,0.15899996 0.036,0.30999996 0.102,0.44299996 -2.476,0.411 -4.408,2.427 -4.692,4.943 -0.012,0.102 0.021,0.201 0.091,0.278 0.065,0.076 0.162,0.118 0.266,0.118 z"
   id="path1107-2" />
		<path
   d="m 34.305339,7.2863303 h -11.967 c -0.496,0 -0.898,0.398 -0.898,0.895 0,0.497 0.402,0.895 0.897,0.895 h 11.968 c 0.496,0 0.896,-0.398 0.896,-0.895 0,-0.497 -0.4,-0.895 -0.896,-0.895 z"
   id="path1109-9" />
	</g>
</g><g
   id="g1113-6-2"
   transform="matrix(0.19230048,0,0,0.16150789,34.77085,30.934834)">
	<g
   id="g1111-7-7">
		<path
   d="m 6.4695072,10.263 c -2.3050917,0 -4.2279989,1.332 -4.4423951,3.054 L 0.6009115,24.849 c -0.0239698,0.282 0.11052721,0.576 0.36886794,0.783 0.25834076,0.206 0.61921876,0.338 0.99474496,0.338 h 2.6912711 l 0.049271,18.614 c 0,0.566 0.6618316,0.99 1.4195423,0.99 h 2.2837853 c 0.7550473,0 1.321,-0.422 1.321,-0.988 V 29.117 c 0,-0.258 0.3049489,-0.428 0.6498469,-0.428 0.344898,0 0.625877,0.17 0.625877,0.428 v 15.47 c 0,0.565 0.639194,0.987 1.392909,0.987 h 2.285117 c 0.756379,0 1.392909,-0.43 1.392909,-0.996 L 15.95221,14.087 18.232,14.085 v -3.796 z"
   id="path1099-5-0"
   style="stroke-width:1.15397" />
		<circle
   cx="11.921611"
   cy="4.2606616"
   id="circle1101-3-9"
   r="5.0863814"
   style="stroke-width:1.19934" />
		<path
   d="m 30.203,10.247 -2.072,0.007 v 3.797 l 2.082,-0.008 c 0.604,-0.002 1.109,-0.49 1.109,-1.095 v -1.606 c 0,-0.292 -0.123,-0.57 -0.329,-0.776 -0.205,-0.206 -0.499,-0.32 -0.79,-0.319 z"
   id="path1103-5-3" />
		<path
   d="m 20.211,18.031 c 0,0.924 0.754,1.684 1.678,1.684 h 2.607 c 0.923,0 1.654,-0.76 1.654,-1.684 V 9.816 h -5.939 z"
   id="path1105-6-6" />
		<path
   d="m 23.058339,6.6483303 h 10.529 c 0.103,0 0.2,-0.042 0.27,-0.117 0.068,-0.078 0.102,-0.179 0.089,-0.281 -0.283,-2.518 -2.217,-4.532 -4.692,-4.942 0.063,-0.136 0.101,-0.284 0.101,-0.44199996 0,-0.57 -0.462,-1.033 -1.032,-1.033 -0.57,0 -1.032,0.463 -1.032,1.033 0,0.15899996 0.036,0.30999996 0.102,0.44299996 -2.476,0.411 -4.408,2.427 -4.692,4.943 -0.012,0.102 0.021,0.201 0.091,0.278 0.065,0.076 0.162,0.118 0.266,0.118 z"
   id="path1107-2-0" />
		<path
   d="m 34.305339,7.2863303 h -11.967 c -0.496,0 -0.898,0.398 -0.898,0.895 0,0.497 0.402,0.895 0.897,0.895 h 11.968 c 0.496,0 0.896,-0.398 0.896,-0.895 0,-0.497 -0.4,-0.895 -0.896,-0.895 z"
   id="path1109-9-6" />
	</g>
</g>
</svg>
